{
  "accessors": [
    {
      "bufferView": 2,
      "componentType": 5126,
      "count": 3016,
      "max": [
        54.839134216308594,
        -95.86769104003906,
        15.205135345458984
      ],
      "min": [
        -53.65853500366211,
        -169.47698974609375,
        -14.334232330322266
      ],
      "type": "VEC3"
    },
    {
      "bufferView": 2,
      "byteOffset": 36192,
      "componentType": 5126,
      "count": 3016,
      "max": [
        0.9995032548904419,
        0.9549463391304016,
        0.9999428987503052
      ],
      "min": [
        -0.9995154738426208,
        -0.9997387528419495,
        -0.999717116355896
      ],
      "type": "VEC3"
    },
    {
      "bufferView": 3,
      "componentType": 5126,
      "count": 3016,
      "max": [
        0.9999564290046692,
        0.9953516721725464,
        0.99965500831604,
        1.0
      ],
      "min": [
        -0.9999957084655762,
        -0.9999154210090637,
        -0.9999878406524658,
        -1.0
      ],
      "type": "VEC4"
    },
    {
      "bufferView": 1,
      "componentType": 5126,
      "count": 3016,
      "max": [
        0.7981889843940735,
        0.9952930212020874
      ],
      "min": [
        0.012261999770998955,
        0.0018769999733194709
      ],
      "type": "VEC2"
    },
    {
      "bufferView": 0,
      "componentType": 5125,
      "count": 16377,
      "type": "SCALAR"
    },
    {
      "bufferView": 2,
      "byteOffset": 72384,
      "componentType": 5126,
      "count": 254,
      "max": [
        3.836884021759033,
        -103.90350341796875,
        10.640315055847168
      ],
      "min": [
        -2.4294281005859375,
        -112.84864807128906,
        5.1291117668151855
      ],
      "type": "VEC3"
    },
    {
      "bufferView": 2,
      "byteOffset": 75432,
      "componentType": 5126,
      "count": 254,
      "max": [
        0.9933948516845703,
        0.9195048809051514,
        0.9463547468185425
      ],
      "min": [
        -0.9926935434341431,
        -0.7547438144683838,
        -0.9416957497596741
      ],
      "type": "VEC3"
    },
    {
      "bufferView": 3,
      "byteOffset": 48256,
      "componentType": 5126,
      "count": 254,
      "max": [
        0.9942318797111511,
        0.7625179886817932,
        0.9338580369949341,
        1.0
      ],
      "min": [
        -0.9939476847648621,
        -0.6682775020599365,
        -0.9496152997016907,
        1.0
      ],
      "type": "VEC4"
    },
    {
      "bufferView": 1,
      "byteOffset": 24128,
      "componentType": 5126,
      "count": 254,
      "max": [
        0.888014018535614,
        0.5734739899635315
      ],
      "min": [
        0.753400981426239,
        0.003157000057399273
      ],
      "type": "VEC2"
    },
    {
      "bufferView": 0,
      "byteOffset": 65508,
      "componentType": 5125,
      "count": 534,
      "type": "SCALAR"
    },
    {
      "bufferView": 2,
      "byteOffset": 78480,
      "componentType": 5126,
      "count": 491,
      "max": [
        0.9004359841346741,
        -112.22679138183594,
        13.695792198181152
      ],
      "min": [
        -0.3477039933204651,
        -119.36097717285156,
        10.293599128723145
      ],
      "type": "VEC3"
    },
    {
      "bufferView": 2,
      "byteOffset": 84372,
      "componentType": 5126,
      "count": 491,
      "max": [
        0.9999357461929321,
        0.862495481967926,
        0.9810224771499634
      ],
      "min": [
        -0.9999797344207764,
        -0.9481191039085388,
        -0.9840882420539856
      ],
      "type": "VEC3"
    },
    {
      "bufferView": 3,
      "byteOffset": 52320,
      "componentType": 5126,
      "count": 491,
      "max": [
        0.9999825954437256,
        0.9073802828788757,
        0.9962863922119141,
        1.0
      ],
      "min": [
        -0.9998838305473328,
        -0.9145479202270508,
        -0.9841585755348206,
        -1.0
      ],
      "type": "VEC4"
    },
    {
      "bufferView": 1,
      "byteOffset": 26160,
      "componentType": 5126,
      "count": 491,
      "max": [
        0.8760970234870911,
        0.9418200254440308
      ],
      "min": [
        0.3319070041179657,
        0.3737269937992096
      ],
      "type": "VEC2"
    },
    {
      "bufferView": 0,
      "byteOffset": 67644,
      "componentType": 5125,
      "count": 987,
      "type": "SCALAR"
    }
  ],
  "asset": {
    "extras": {
      "author": "MoLou (https://sketchfab.com/molou0323)",
      "license": "CC-BY-4.0 (http://creativecommons.org/licenses/by/4.0/)",
      "source": "https://sketchfab.com/3d-models/pink-shirt-727fb57e508b4f99aad5b0d57e66a24d",
      "title": "Pink Shirt"
    },
    "generator": "Sketchfab-12.68.0",
    "version": "2.0"
  },
  "bufferViews": [
    {
      "buffer": 0,
      "byteLength": 71592,
      "name": "floatBufferViews",
      "target": 34963
    },
    {
      "buffer": 0,
      "byteLength": 30088,
      "byteOffset": 71592,
      "byteStride": 8,
      "name": "floatBufferViews",
      "target": 34962
    },
    {
      "buffer": 0,
      "byteLength": 90264,
      "byteOffset": 101680,
      "byteStride": 12,
      "name": "floatBufferViews",
      "target": 34962
    },
    {
      "buffer": 0,
      "byteLength": 60176,
      "byteOffset": 191944,
      "byteStride": 16,
      "name": "floatBufferViews",
      "target": 34962
    }
  ],
  "buffers": [
    {
      "byteLength": 252120,
      "uri": "scene.bin"
    }
  ],
  "images": [
    {
      "uri": "textures/lambert1_baseColor.jpeg"
    },
    {
      "uri": "textures/lambert1_metallicRoughness.png"
    },
    {
      "uri": "textures/lambert1_normal.png"
    }
  ],
  "materials": [
    {
      "doubleSided": true,
      "name": "lambert1",
      "normalTexture": {
        "index": 2
      },
      "occlusionTexture": {
        "index": 1
      },
      "pbrMetallicRoughness": {
        "baseColorTexture": {
          "index": 0
        },
        "metallicRoughnessTexture": {
          "index": 1
        }
      }
    }
  ],
  "meshes": [
    {
      "name": "defaultMaterial",
      "primitives": [
        {
          "attributes": {
            "NORMAL": 1,
            "POSITION": 0,
            "TANGENT": 2,
            "TEXCOORD_0": 3
          },
          "indices": 4,
          "material": 0,
          "mode": 4
        }
      ]
    },
    {
      "name": "defaultMaterial",
      "primitives": [
        {
          "attributes": {
            "NORMAL": 6,
            "POSITION": 5,
            "TANGENT": 7,
            "TEXCOORD_0": 8
          },
          "indices": 9,
          "material": 0,
          "mode": 4
        }
      ]
    },
    {
      "name": "defaultMaterial",
      "primitives": [
        {
          "attributes": {
            "NORMAL": 11,
            "POSITION": 10,
            "TANGENT": 12,
            "TEXCOORD_0": 13
          },
          "indices": 14,
          "material": 0,
          "mode": 4
        }
      ]
    }
  ],
  "nodes": [
    {
      "children": [
        1
      ],
      "matrix": [
        1.0,
        0.0,
        0.0,
        0.0,
        0.0,
        2.220446049250313e-16,
        -1.0,
        0.0,
        0.0,
        1.0,
        2.220446049250313e-16,
        0.0,
        0.0,
        0.0,
        0.0,
        1.0
      ],
      "name": "Sketchfab_model"
    },
    {
      "children": [
        2
      ],
      "matrix": [
        1.0,
        0.0,
        0.0,
        0.0,
        0.0,
        -4.371139006309477e-08,
        0.999999999999999,
        0.0,
        0.0,
        -0.999999999999999,
        -4.371139006309477e-08,
        0.0,
        0.0,
        0.0,
        0.0,
        1.0
      ],
      "name": "Collada visual scene group"
    },
    {
      "children": [
        3,
        5,
        7
      ],
      "name": "Cloth_GR"
    },
    {
      "children": [
        4
      ],
      "name": "Cloth_L"
    },
    {
      "mesh": 0,
      "name": "defaultMaterial"
    },
    {
      "children": [
        6
      ],
      "name": "ZipTeeth_L"
    },
    {
      "mesh": 1,
      "name": "defaultMaterial"
    },
    {
      "children": [
        8
      ],
      "name": "ZipPull_L"
    },
    {
      "mesh": 2,
      "name": "defaultMaterial"
    }
  ],
  "samplers": [
    {
      "magFilter": 9729,
      "minFilter": 9987,
      "wrapS": 10497,
      "wrapT": 10497
    }
  ],
  "scene": 0,
  "scenes": [
    {
      "name": "Sketchfab_Scene",
      "nodes": [
        0
      ]
    }
  ],
  "textures": [
    {
      "sampler": 0,
      "source": 0
    },
    {
      "sampler": 0,
      "source": 1
    },
    {
      "sampler": 0,
      "source": 2
    }
  ]
}
