<svg width="800" height="800" viewBox="0 0 800 800" fill="none" xmlns="http://www.w3.org/2000/svg">
<g clip-path="url(#clip0_5271_169)">
<path d="M694.075 303.812L690.269 302.456L675.407 266.979L677.019 263.333C722.043 161.22 718.938 158.174 711.47 150.771L651.413 92.1823C648.958 89.7464 644.646 88.033 640.929 88.033C637.55 88.033 627.315 88.033 538.615 128.207L535.058 129.803L498.463 115.066L496.994 111.423C455.282 8.13965 451.009 8.13965 440.629 8.13965H355.814C345.473 8.13965 340.764 8.13965 302.085 111.603L300.629 115.369L264.224 130.21L260.743 128.763C200.705 103.451 165.649 90.6161 156.511 90.6161C152.803 90.6161 148.477 92.2797 146.01 94.7092L85.8967 153.466C78.2708 160.988 75.108 164.138 122.49 264.121L124.232 267.829L109.345 303.267L105.702 304.675C0 345.524 0 349.507 0 360.146V443.259C0 453.926 0 458.357 105.912 496.313L109.698 497.65L124.586 532.985L122.988 536.595C77.9636 638.756 80.8193 641.521 88.4841 649.145L148.451 707.813C150.964 710.23 155.315 711.956 159.025 711.956C162.383 711.956 172.594 711.956 261.353 671.802L264.907 670.138L301.527 684.949L302.95 688.611C344.688 791.86 348.976 791.86 359.362 791.86H444.203C454.856 791.86 459.273 791.86 497.982 688.328L499.425 684.559L535.889 669.818L539.359 671.233C599.347 696.616 634.385 709.425 643.465 709.425C647.14 709.425 651.506 707.813 654.013 705.33L714.224 646.445C721.798 638.884 724.955 635.792 677.488 535.905L675.723 532.154L690.583 496.869L694.131 495.478C800.002 454.415 800.002 450.413 800.002 439.761V356.698C800 346.033 800 341.628 694.075 303.812ZM399.999 534.793C324.199 534.793 262.534 474.307 262.534 400.015C262.534 325.721 324.201 265.315 399.999 265.315C475.767 265.315 537.421 325.734 537.421 400.015C537.423 474.295 475.769 534.793 399.999 534.793Z" fill="#B77BD1"/>
</g>
<defs>
<clipPath id="clip0_5271_169">
<rect width="800" height="800" fill="white"/>
</clipPath>
</defs>
</svg>
